# xmcd CD database file
#
# Track frame offsets:
#	150
#	36358
#	59315
#	83645
#	120368
#	139108
#	159108
#	172790
#	186895
#	205633
#	216793
#
# Disc length: 3178 seconds
#
# Revision: 0
# Processed by: cddbd v1.4PL0 Copyright (c) Steve Scherf et al.
# Submitted via: CDex 1.50beta10
#
DISCID=860c680b
DTITLE=phillip johnson's BIG TROUBLE - The Unknown
DYEAR=1994
DGENRE=Jazz
TTITLE0=men's hands
TTITLE1=putting crazy ideas in her head again
TTITLE2=20 gypsy souls are kept out of hell
TTITLE3=there is nothing I will not do to own her
TTITLE4=but you forget........
TTITLE5=what is the price for your silence about my past ?
TTITLE6=a toast but it's strange
TTITLE7=no......not sick
TTITLE8=it was just something in here that stung like the lash of a whip
TTITLE9=nothing will happen
TTITLE10=hate death hate love
EXTD=YEAR: 1994
EXTT0=
EXTT1=
EXTT2=
EXTT3=
EXTT4=
EXTT5=
EXTT6=
EXTT7=
EXTT8=
EXTT9=
EXTT10=
PLAYORDER=
